<svg xmlns="http://www.w3.org/2000/svg" width="48" height="48" viewBox="0 0 48 48" fill="none">
  <rect width="48" height="48" rx="8" fill="#3A5CAA"/>
  <path d="M14 14H34V34H14V14Z" fill="#FF6B6B"/>
  <path d="M19 19C19 17.8954 19.8954 17 21 17C22.1046 17 23 17.8954 23 19C23 20.1046 22.1046 21 21 21C19.8954 21 19 20.1046 19 19Z" fill="#00FFEE"/>
  <path d="M29 19C29 17.8954 29.8954 17 31 17C32.1046 17 33 17.8954 33 19C33 20.1046 32.1046 21 31 21C29.8954 21 29 20.1046 29 19Z" fill="#00FFEE"/>
  <path d="M19 29C19 27.8954 19.8954 27 21 27H31C32.1046 27 33 27.8954 33 29C33 30.1046 32.1046 31 31 31H21C19.8954 31 19 30.1046 19 29Z" fill="white"/>
</svg> 